<svg width="96" height="84" viewBox="0 0 96 84" fill="none" xmlns="http://www.w3.org/2000/svg">
<g id="caution-sign">
<path id="bkg-triangle" d="M41.93 10.5021C44.6242 5.83484 51.3606 5.83485 54.0548 10.5021L83.494 61.5002C86.1879 66.1669 82.82 71.9998 77.4316 71.9998H18.5532C13.1648 71.9998 9.79687 66.1669 12.4908 61.5002L41.93 10.5021Z" fill="#0D0D0D"/>
<path id="inner-triangle" d="M43.6621 19.5014C45.5865 16.1677 50.3983 16.1677 52.3227 19.5014L74.8351 58.5001C76.7593 61.8334 74.3537 65.9998 70.5048 65.9998H25.48C21.6311 65.9998 19.2255 61.8334 21.1497 58.5001L43.6621 19.5014Z" fill="#FFED4B"/>
<g id="exclamation-point">
<ellipse id="Ellipse 1" cx="48.052" cy="58.5598" rx="4.79924" ry="4.79999" fill="#030303"/>
<ellipse id="Ellipse 2" cx="48.052" cy="37.4399" rx="4.79924" ry="13.44" fill="black"/>
</g>
</g>
</svg>
