<svg width="300" height="84" viewBox="0 0 300 84" fill="none" xmlns="http://www.w3.org/2000/svg">
<g id="construction-logo">
<g id="bkg">
<rect id="bkg-rect" y="3.05176e-05" width="300" height="84" rx="42" fill="#FF9900"/>
</g>
<g id="text-area">
<rect id="text-rect" x="128" y="10" width="158.491" height="64.25" rx="32" fill="#050505"/>
<g id="construction-text">
<text id="Coming Soon!" fill="#FFFEFE" xml:space="preserve" style="white-space: pre" font-family="Roboto" font-size="12" letter-spacing="0em"><tspan x="170.025" y="59.2774">Coming Soon!</tspan></text>
<text id="Under Construction" fill="#FFFEFE" xml:space="preserve" style="white-space: pre" font-family="Roboto" font-size="14" font-weight="bold" letter-spacing="0em"><tspan x="147.21" y="36.8711">Under Construction</tspan></text>
<line id="Line 1" x1="144.632" y1="44.6367" x2="272.246" y2="44.6367" stroke="white"/>
</g>
</g>
<g id="img-area">
<g id="caution-sign">
<path id="bkg-triangle" d="M59.93 10.502C62.6242 5.83481 69.3606 5.83482 72.0548 10.502L101.494 61.5002C104.188 66.1669 100.82 71.9998 95.4316 71.9998H36.5532C31.1648 71.9998 27.7969 66.1668 30.4908 61.5002L59.93 10.502Z" fill="#0D0D0D"/>
<path id="inner-triangle" d="M61.6621 19.5014C63.5866 16.1677 68.3983 16.1677 70.3227 19.5014L92.8351 58.5001C94.7593 61.8334 92.3537 65.9998 88.5048 65.9998H43.48C39.6312 65.9998 37.2255 61.8334 39.1497 58.5001L61.6621 19.5014Z" fill="#FFED4B"/>
<g id="exclamation-point">
<ellipse id="Ellipse 1" cx="66.052" cy="58.5598" rx="4.79924" ry="4.79999" fill="#030303"/>
<ellipse id="Ellipse 2" cx="66.052" cy="37.4399" rx="4.79924" ry="13.44" fill="black"/>
</g>
</g>
</g>
</g>
</svg>
