<svg width="300" height="84" viewBox="0 0 300 84" fill="none" xmlns="http://www.w3.org/2000/svg">
<g id="construction-logo-rect">
<g id="bkg">
<rect id="bkg-rect" y="3.05176e-05" width="300" height="84" rx="6" fill="#FF9900"/>
</g>
<g id="text-area">
<rect id="text-rect" x="119" y="10" width="172.491" height="64.25" rx="6" fill="#050505"/>
<g id="construction-text">
<text id="Coming Soon!" fill="#FFFEFE" xml:space="preserve" style="white-space: pre" font-family="Roboto" font-size="12" letter-spacing="0em"><tspan x="168.049" y="59.2773">Coming Soon!</tspan></text>
<text id="Under Construction" fill="#FFFEFE" xml:space="preserve" style="white-space: pre" font-family="Roboto" font-size="14" font-weight="bold" letter-spacing="0em"><tspan x="145.316" y="36.8711">Under Construction</tspan></text>
<line id="Line 1" x1="137.101" y1="44.6367" x2="275.988" y2="44.6367" stroke="white"/>
</g>
</g>
<g id="img-area">
<g id="caution-sign">
<path id="bkg-triangle" d="M41.93 10.502C44.6242 5.83481 51.3606 5.83482 54.0548 10.502L83.4941 61.5002C86.188 66.1669 82.82 71.9998 77.4316 71.9998H18.5532C13.1648 71.9998 9.79688 66.1669 12.4908 61.5002L41.93 10.502Z" fill="#0D0D0D"/>
<path id="inner-triangle" d="M43.6621 19.5014C45.5865 16.1677 50.3983 16.1677 52.3227 19.5014L74.8351 58.5001C76.7593 61.8334 74.3537 65.9998 70.5048 65.9998H25.48C21.6312 65.9998 19.2255 61.8334 21.1497 58.5001L43.6621 19.5014Z" fill="#FFED4B"/>
<g id="exclamation-point">
<ellipse id="Ellipse 1" cx="48.052" cy="58.5598" rx="4.79924" ry="4.79999" fill="#030303"/>
<ellipse id="Ellipse 2" cx="48.052" cy="37.4399" rx="4.79924" ry="13.44" fill="black"/>
</g>
</g>
</g>
</g>
</svg>
